# xmcd CD database file
#
# Track frame offsets:
#	172
#	15655
#	33022
#	47445
#	65967
#	82120
#	99485
#	121102
#	131580
#	143725
#	161937
#	178300
#	194880
#	207357
#	221472
#	234575
#	250215
#	266885
#	282502
#	294212
#
# Disc length: 4130 seconds
#
# Revision: 0
# Processed by: cddbd v1.5.2PL0 Copyright (c) Steve Scherf et al.
# Submitted via: CDex 1.70beta2
#
DISCID=38102014
DTITLE=Tommy Dorsey and His Orchestra - at the Fat Man's 1946-48
DYEAR=1993
DGENRE=Jazz
TTITLE0=Blue skies
TTITLE1=Dawn on the desert
TTITLE2=At the fat man's
TTITLE3=Come rain or come shine
TTITLE4=Bingo bango boffo
TTITLE5=Marie
TTITLE6=Well git it
TTITLE7=At sundown
TTITLE8=Trombonology
TTITLE9=Baby baby all the time
TTITLE10=Until
TTITLE11=The continental
TTITLE12=Candy
TTITLE13=Opus one
TTITLE14=I've got the world on a string
TTITLE15=Non drastic
TTITLE16=Let me call you sweetheart
TTITLE17=Feels so good
TTITLE18=You know what the trouble is
TTITLE19=Pussy willow
EXTD=YEAR: 1993
EXTT0=
EXTT1=
EXTT2=
EXTT3=
EXTT4=
EXTT5=
EXTT6=
EXTT7=
EXTT8=
EXTT9=
EXTT10=
EXTT11=
EXTT12=
EXTT13=
EXTT14=
EXTT15=
EXTT16=
EXTT17=
EXTT18=
EXTT19=
PLAYORDER=
